<?xml version="1.0" encoding="UTF-8"?>
<!DOCTYPE svg PUBLIC "-//W3C//DTD SVG 1.1//EN" "http://www.w3.org/Graphics/SVG/1.1/DTD/svg11.dtd">
<!-- Creator: CorelDRAW -->
<svg xmlns="http://www.w3.org/2000/svg" xml:space="preserve" width="213.148mm" height="56.3062mm" style="shape-rendering:geometricPrecision; text-rendering:geometricPrecision; image-rendering:optimizeQuality; fill-rule:evenodd; clip-rule:evenodd"
viewBox="0 0 219.603 58.0113"
 xmlns:xlink="http://www.w3.org/1999/xlink">
 <defs>
  <style type="text/css">
   <![CDATA[
    .fil2 {fill:white}
    .fil3 {fill:#E42724}
    .fil4 {fill:#FEFEFE;fill-rule:nonzero}
    .fil1 {fill:url(#id0)}
    .fil0 {fill:url(#id1);fill-rule:nonzero}
   ]]>
  </style>
  <linearGradient id="id0" gradientUnits="userSpaceOnUse" x1="-7.66036" y1="19.606" x2="35.2527" y2="19.606">
   <stop offset="0" style="stop-color:#E31E24"/>
   <stop offset="1" style="stop-color:#EF7F1A"/>
  </linearGradient>
  <linearGradient id="id1" gradientUnits="userSpaceOnUse" x1="89.7785" y1="-52.9523" x2="177.21" y2="98.4841">
   <stop offset="0" style="stop-color:#E42724"/>
   <stop offset="0.678431" style="stop-color:#E95020"/>
   <stop offset="1" style="stop-color:#EE791C"/>
  </linearGradient>
 </defs>
 <g id="Layer_x0020_1">
  <metadata id="CorelCorpID_0Corel-Layer"/>
  <path class="fil0" d="M73.3567 39.407c-2.30124,0.605085 -4.42342,0.886353 -6.36664,0.85225 -1.95177,-0.0341024 -3.11939,-0.136306 -3.52007,-0.298267 -3.63072,-0.596637 -6.89507,-2.29269 -9.79284,-5.07116 -3.46031,-3.66492 -5.19057,-7.85818 -5.19057,-12.58 0,-4.88365 1.76426,-9.1451 5.29277,-12.7845 2.98308,-2.83812 6.32409,-4.50862 10.0401,-5.02006 0.264268,-0.0681017 0.545535,-0.119307 0.843802,-0.153409l0.698841 0c0.255716,-0.0169997 0.502881,-0.025551 0.750046,-0.025551l0 0.025551 0.502881 0 9.38382 -0.025551c1.93467,0 3.09384,1.21883 3.47731,3.64782 0,2.01142 -1.26993,3.17059 -3.80123,3.46886l-0.750046 0c-0.127755,0.0341024 -0.272716,0.0512051 -0.417574,0.0512051l-9.11966 0c-2.22448,0.213063 -4.15915,1.01421 -5.7871,2.39489 -2.61651,2.30124 -3.92054,5.03706 -3.92054,8.2162l0 0.298267c0,2.11373 0.639188,4.1507 1.91767,6.09392 2.40355,2.86378 4.82399,4.46607 7.27009,4.79844 2.4461,0.332369 4.49162,0.255716 6.13657,-0.230062 1.6535,-0.47733 2.92343,-1.09952 3.82678,-1.84956 0.895007,-0.741495 1.88367,-1.76426 2.96608,-3.04263 0.102204,-0.153409 0.255613,-0.366472 0.451676,-0.647739 1.50009,-1.15062 2.98308,-1.34668 4.44897,-0.596637l0.247165 0.144858c0.997211,0.571086 1.38079,1.6876 1.15062,3.37511 -0.400574,1.62795 -1.54264,3.26435 -3.40921,4.91775 -1.87501,1.64495 -4.32111,2.99163 -7.32974,4.03995z"/>
  <path id="1" class="fil0" d="M107.108 25.9748l-4.01429 -9.26451 -9.39237 20.5489c-0.0682048,0.13641 -0.13641,0.264268 -0.196063,0.375023l-0.323818 0.67329c-1.33813,2.14783 -2.89788,2.80412 -4.69613,1.95177 -2.01997,-1.39779 -2.61661,-2.96598 -1.79836,-4.69613l2.31824 -4.9433 10.739 -23.6172c0.0511021,-0.0853075 0.110755,-0.170512 0.17896,-0.255716 0.161961,-0.281267 0.383574,-0.562535 0.647739,-0.843802 0.281267,-0.298267 0.571086,-0.553983 0.869353,-0.750046 0.0852044,-0.0511021 0.161961,-0.102204 0.230165,-0.153409 1.81536,-0.843699 3.40066,-0.19596 4.76434,1.95177l10.8924 23.6172 2.34379 4.9434c0.835251,1.73015 0.221614,3.29835 -1.82391,4.69613 -1.81536,0.85225 -3.3921,0.204511 -4.74734,-1.94322l-0.323818 -0.681842c-0.0596534,-0.110858 -0.127858,-0.238717 -0.196063,-0.366472l-2.14773 -4.07405 -1.22738 -0.0511021 -7.3383 0.025551c-1.92611,0 -3.08529,-1.21027 -3.46886,-3.64782 0,-2.01142 1.26148,-3.17059 3.79278,-3.46886l0.750046 0c0.136306,-0.0171027 0.272716,-0.025551 0.426125,-0.025551l3.74158 0z"/>
  <path id="12" class="fil0" d="M129.131 18.8324l-0.025551 18.2563c0,1.92611 -1.21883,3.08529 -3.64792,3.46886 -2.01142,0 -3.17904,-1.26148 -3.49441,-3.79278l0.025551 -22.995 0 -5.47173c0,-1.93477 1.21883,-3.08539 3.64792,-3.46886 0.894904,0 1.62785,0.255716 2.19893,0.775597 0.392023,0.264165 0.792597,0.622188 1.19317,1.07386l0.426125 0.596637c0.102307,0.102307 0.187512,0.204511 0.272716,0.323818l14.3612 19.1257 0.0256541 -12.8868 0 -5.46328c0,-1.93467 1.21027,-3.09384 3.63927,-3.46886 2.01997,0 3.17904,1.26148 3.47741,3.79278l0 0.750046c0.0169997,0.127755 0.025551,0.272716 0.025551,0.426125l-0.025551 27.2906c0,1.14207 -0.434677,2.01997 -1.30403,2.61661 -0.127858,0.153409 -0.264268,0.289716 -0.400574,0.426125 -1.62795,1.16762 -3.3069,0.8097 -5.03706,-1.07386l-15.3584 -20.3018z"/>
  <path id="123" class="fil0" d="M160.095 18.8324l-0.025551 18.2563c0,1.92611 -1.21883,3.08529 -3.64792,3.46886 -2.01142,0 -3.17904,-1.26148 -3.49441,-3.79278l0.025551 -22.995 0 -5.47173c0,-1.93477 1.21883,-3.08539 3.64792,-3.46886 0.894904,0 1.62785,0.255716 2.19893,0.775597 0.392023,0.264165 0.792597,0.622188 1.19317,1.07386l0.426125 0.596637c0.102307,0.102307 0.187512,0.204511 0.272716,0.323818l14.3612 19.1257 0.0256541 -12.8868 0 -5.46328c0,-1.93467 1.21027,-3.09384 3.63927,-3.46886 2.01997,0 3.17904,1.26148 3.47741,3.79278l0 0.750046c0.0169997,0.127755 0.025551,0.272716 0.025551,0.426125l-0.025551 27.2906c0,1.14207 -0.434677,2.01997 -1.30403,2.61661 -0.127858,0.153409 -0.264268,0.289716 -0.400574,0.426125 -1.62795,1.16762 -3.3069,0.8097 -5.03706,-1.07386l-15.3584 -20.3018z"/>
  <path id="1234" class="fil0" d="M198.551 28.1482l-9.56278 -13.1852 -3.19614 -4.44042c-1.13362,-1.56819 -0.826699,-3.21314 0.920455,-4.9433 1.6364,-1.18472 3.31545,-0.835251 5.04561,1.04831l0.426125 0.596534c0.0937558,0.102307 0.187512,0.213166 0.272819,0.349472l9.63943 13.4834 7.49171 -10.5855 3.19614 -4.42352c1.13352,-1.55964 2.79557,-1.78981 4.9945,-0.67329 1.62785,1.18472 1.82391,2.88933 0.570983,5.12236l-0.426125 0.596534c-0.0682048,0.11941 -0.144858,0.238717 -0.247165,0.375023l-11.9833 16.7307 0.0511021 8.99169c0,1.92622 -1.21872,3.08539 -3.64782,3.46886 -2.01142,0 -3.17904,-1.26993 -3.49441,-3.79268l-0.0511021 -6.76731 0 -1.95167z"/>
  <g id="_357851336">
   <path id="_357851864" class="fil1" d="M10.1399 40.8651c-17.8003,-15.3867 1.85348,-42.5184 14.8122,-37.202 10.3006,5.66161 -16.0891,23.6594 -17.1173,29.5263 0,0 -1.66762,3.23705 2.30516,7.67571z"/>
   <path id="_357851696" class="fil2" d="M10.04 40.7435c-20.1697,-13.147 -7.03797,-43.7176 13.7374,-40.509 0,0 -21.271,3.35604 -21.0227,22.76 0,0 -0.510196,11.429 7.28534,17.749z"/>
   <path id="_357851528" class="fil2" d="M8.97768 38.4271c10.6252,14.4822 32.8557,3.43939 29.6088,-11.904 -1.60384,15.7987 -20.3832,22.0776 -29.6088,11.904z"/>
   <path id="_357851408" class="fil3" d="M8.81109 38.3735c0.282298,0.317636 3.00091,1.83576 5.71972,0.917879 2.71881,-0.917879 12.2524,-11.0338 12.2524,-11.0338 0,0 3.46031,-3.53088 6.88518,-2.54212 0,0 7.06156,2.64814 -0.494433,11.6869 0,0 -7.80295,8.79172 -19.4547,3.98988 0,0 -3.49544,-1.37708 -4.90817,-3.01873z"/>
  </g>
  <path class="fil4" d="M62.1714 43.8909l-7.65027 0c-0.257365,0 -0.386047,0.150627 -0.386047,0.449101 0,0.298473 0.128682,0.448997 0.386047,0.448997l3.40076 0 0 10.6841c0,0.150524 0.0492475,0.273746 0.145064,0.369563 0.0958163,0.0848953 0.213578,0.128682 0.353284,0.128682 0.125901,0 0.238202,-0.043787 0.334018,-0.128682 0.106737,-0.0958163 0.161548,-0.219038 0.161548,-0.369563l0 -10.6841 3.25559 0c0.161548,0 0.290231,-0.0492475 0.386047,-0.145064 0.0958163,-0.0848953 0.145167,-0.186172 0.145167,-0.303934 0,-0.128682 -0.0493506,-0.235523 -0.145167,-0.320315 -0.0958163,-0.0848953 -0.224499,-0.128785 -0.386047,-0.128785z"/>
  <path id="1" class="fil4" d="M70.4651 53.2607c-0.254583,0.555838 -0.550377,0.972072 -0.881613,1.25128 -0.427155,0.375126 -0.961151,0.561401 -1.60456,0.561401 -0.813203,0 -1.4594,-0.369666 -1.94136,-1.10622 -0.416131,-0.62157 -0.646091,-1.38553 -0.689981,-2.29454l6.30585 0 0 -0.257365c0,-1.25138 -0.309394,-2.30825 -0.930964,-3.17626 -0.68452,-0.939103 -1.599,-1.41005 -2.74354,-1.41005 -1.14454,0 -2.05356,0.470943 -2.72716,1.41005 -0.610546,0.868014 -0.914479,1.92488 -0.914479,3.17626 0,1.24036 0.303934,2.28898 0.914479,3.14329 0.673599,0.941885 1.58262,1.41283 2.72716,1.41283 0.813203,0 1.51967,-0.208014 2.11929,-0.624249 0.585922,-0.396968 1.0377,-0.969291 1.3471,-1.71676 0.0630533,-0.161548 0.0630533,-0.312176 0,-0.449101 -0.054708,-0.117658 -0.145064,-0.199875 -0.273746,-0.24088 -0.139706,-0.0548111 -0.271068,-0.0602716 -0.39975,-0.0164845 -0.139706,0.0629503 -0.240983,0.175251 -0.306715,0.3368zm-5.08465 -2.48618c0.0629503,-0.780337 0.293013,-1.45394 0.689981,-2.02069 0.481967,-0.695544 1.11714,-1.04326 1.9085,-1.04326 0.791361,0 1.43199,0.353284 1.92488,1.05965 0.397071,0.577783 0.62703,1.24582 0.689981,2.00431l-5.21334 0z"/>
  <path id="12" class="fil4" d="M77.6362 46.829c0.941885,0 1.72768,0.224499 2.36028,0.673496 0.522972,0.38615 0.870692,0.859771 1.04038,1.42663 0.032866,0.139603 0.00556353,0.262825 -0.0793318,0.369563 -0.0739743,0.10684 -0.180712,0.175251 -0.320418,0.208117 -0.150524,0.032866 -0.28477,0.021945 -0.402429,-0.032866 -0.136925,-0.0629503 -0.224602,-0.169688 -0.254686,-0.320315 -0.161548,-0.50113 -0.432616,-0.870692 -0.818663,-1.10622 -0.386047,-0.224499 -0.914583,-0.3368 -1.58808,-0.3368 -0.909122,0 -1.61002,0.380587 -2.10291,1.13908 -0.438076,0.662575 -0.657115,1.51421 -0.657115,2.54913 0,1.05965 0.219038,1.91942 0.657115,2.58477 0.481967,0.725629 1.18287,1.08983 2.10291,1.08983 0.758392,0 1.33617,-0.117761 1.73314,-0.353284 0.394289,-0.23542 0.690084,-0.629709 0.881716,-1.18555 0.043787,-0.150627 0.139603,-0.257365 0.287449,-0.320418 0.128682,-0.054708 0.262928,-0.0657321 0.402532,-0.032866 0.150627,0.032866 0.257365,0.10138 0.320315,0.208117 0.0739743,0.10684 0.0794348,0.240983 0.0164845,0.402532 -0.320418,0.673599 -0.711926,1.18009 -1.17195,1.52235 -0.607867,0.438076 -1.41005,0.657115 -2.40674,0.657115 -1.29239,0 -2.27816,-0.459918 -2.95166,-1.37996 -0.588704,-0.802282 -0.881716,-1.85915 -0.881716,-3.17616 0,-1.27055 0.303934,-2.33019 0.914583,-3.17626 0.695441,-0.939103 1.66751,-1.41005 2.91879,-1.41005z"/>
  <path id="123" class="fil4" d="M83.4793 44.1319l0 11.3111c0,0.169791 0.0492475,0.303934 0.145064,0.39975 0.0959194,0.0959194 0.213578,0.145167 0.353284,0.145167 0.125901,-0.010921 0.238202,-0.0574898 0.334018,-0.145167 0.106737,-0.106737 0.161548,-0.246341 0.161548,-0.416131l0 -6.01562c0.397071,-0.555838 0.813203,-0.972072 1.25128,-1.25128 0.481967,-0.298473 0.999478,-0.449101 1.55532,-0.449101 0.558517,0 0.996593,0.169791 1.31701,0.512051 0.29837,0.301152 0.448997,0.67906 0.448997,1.13908l0 6.08125c0,0.15887 0.0493506,0.293013 0.145167,0.39975 0.0958163,0.0848953 0.213578,0.128682 0.353181,0.128682 0.136925,0 0.254686,-0.043787 0.350502,-0.128682 0.106737,-0.106737 0.161548,-0.24088 0.161548,-0.39975l0 -6.07857c0,-0.695441 -0.235523,-1.27868 -0.706465,-1.74963 -0.512051,-0.522972 -1.20203,-0.785797 -2.06994,-0.785797 -0.618891,0 -1.18019,0.134143 -1.684,0.39975 -0.394289,0.216256 -0.769416,0.525651 -1.1226,0.930964l0 -4.02501c0,-0.161548 -0.0548111,-0.290231 -0.161548,-0.38615 -0.0958163,-0.0847923 -0.208117,-0.128682 -0.334018,-0.128682 -0.139706,0 -0.257365,0.0438901 -0.353284,0.128682 -0.0958163,0.0959194 -0.145064,0.224602 -0.145064,0.383368z"/>
  <path id="1234" class="fil4" d="M92.8655 47.4697l0 7.97326c0,0.169791 0.0492475,0.303934 0.145064,0.39975 0.0959194,0.0959194 0.213578,0.145167 0.353284,0.145167 0.125901,-0.010921 0.238202,-0.0574898 0.334018,-0.145167 0.106737,-0.106737 0.161548,-0.246341 0.161548,-0.416131l0 -5.71168c0.375126,-0.68452 0.813203,-1.19111 1.31701,-1.52235 0.479185,-0.320418 1.02678,-0.481967 1.63465,-0.481967 0.55862,0 1.00216,0.169791 1.3335,0.512051 0.29837,0.301152 0.448997,0.67906 0.448997,1.13908l0 6.08125c0,0.15887 0.0493506,0.293013 0.145167,0.39975 0.0958163,0.0848953 0.213578,0.128682 0.353181,0.128682 0.126004,0 0.238202,-0.043787 0.334018,-0.128682 0.10684,-0.106737 0.161548,-0.24088 0.161548,-0.39975l0 -6.07857c0,-0.695441 -0.23542,-1.27868 -0.706362,-1.74963 -0.512051,-0.522972 -1.20203,-0.785797 -2.07005,-0.785797 -0.673599,0 -1.2623,0.142385 -1.76333,0.429834 -0.481864,0.27931 -0.878935,0.67906 -1.18833,1.20481l0 -0.996696c0,-0.158767 -0.0548111,-0.287552 -0.161548,-0.383368 -0.0958163,-0.0848953 -0.208117,-0.128682 -0.334018,-0.128682 -0.139706,0 -0.257365,0.043787 -0.353284,0.128682 -0.0958163,0.0958163 -0.145064,0.224602 -0.145064,0.38615z"/>
  <path id="12345" class="fil4" d="M105.956 46.859c-1.27312,0 -2.26982,0.470943 -2.98452,1.41283 -0.632491,0.832366 -0.947346,1.88655 -0.947346,3.15978 0,1.2623 0.314855,2.31093 0.947346,3.14339 0.714708,0.952806 1.7114,1.42921 2.98452,1.42921 1.25952,0 2.25076,-0.476403 2.96536,-1.42921 0.643515,-0.832469 0.96383,-1.88109 0.96383,-3.14339 0,-1.27322 -0.320315,-2.32741 -0.96383,-3.15978 -0.714605,-0.941885 -1.70584,-1.41283 -2.96536,-1.41283zm0 0.881716c0.939206,0 1.67297,0.380587 2.19605,1.13898 0.481864,0.673599 0.722847,1.52513 0.722847,2.55191 0,1.00494 -0.240983,1.85101 -0.722847,2.53553 -0.523075,0.758392 -1.25684,1.13898 -2.19605,1.13898 -0.952806,0 -1.6976,-0.380587 -2.23149,-1.13898 -0.460022,-0.673599 -0.689981,-1.51967 -0.689981,-2.53553 0,-1.02678 0.229959,-1.87831 0.689981,-2.55191 0.533893,-0.758392 1.27868,-1.13898 2.23149,-1.13898z"/>
  <path id="123456" class="fil4" d="M112.342 44.0853l0 11.3878c0,0.150524 0.0492475,0.273746 0.145064,0.369563 0.0959194,0.0848953 0.213578,0.128682 0.353284,0.128682 0.125901,0 0.238202,-0.043787 0.334018,-0.128682 0.106737,-0.0847923 0.161548,-0.202554 0.161548,-0.353181l0 -11.3877c0,-0.161548 -0.0548111,-0.28477 -0.161548,-0.369666 -0.0958163,-0.0739743 -0.208117,-0.112301 -0.334018,-0.112301 -0.139706,0 -0.257365,0.0383265 -0.353284,0.112301 -0.0958163,0.0848953 -0.145064,0.202657 -0.145064,0.353181z"/>
  <path id="1234567" class="fil4" d="M119.707 46.859c-1.27312,0 -2.26982,0.470943 -2.98452,1.41283 -0.632491,0.832366 -0.947346,1.88655 -0.947346,3.15978 0,1.2623 0.314855,2.31093 0.947346,3.14339 0.714708,0.952806 1.7114,1.42921 2.98452,1.42921 1.25952,0 2.25076,-0.476403 2.96536,-1.42921 0.643515,-0.832469 0.96383,-1.88109 0.96383,-3.14339 0,-1.27322 -0.320315,-2.32741 -0.96383,-3.15978 -0.714605,-0.941885 -1.70584,-1.41283 -2.96536,-1.41283zm0 0.881716c0.939206,0 1.67297,0.380587 2.19605,1.13898 0.481864,0.673599 0.722847,1.52513 0.722847,2.55191 0,1.00494 -0.240983,1.85101 -0.722847,2.53553 -0.523075,0.758392 -1.25684,1.13898 -2.19605,1.13898 -0.952806,0 -1.6976,-0.380587 -2.23149,-1.13898 -0.460022,-0.673599 -0.689981,-1.51967 -0.689981,-2.53553 0,-1.02678 0.229959,-1.87831 0.689981,-2.55191 0.533893,-0.758392 1.27868,-1.13898 2.23149,-1.13898z"/>
  <path id="12345678" class="fil4" d="M132.204 47.4368l0 0.848747c-0.331339,-0.490106 -0.722847,-0.859771 -1.17195,-1.10622 -0.460022,-0.232741 -0.993914,-0.350399 -1.60178,-0.350399 -1.22119,0 -2.17678,0.465482 -2.87222,1.39645 -0.610649,0.832366 -0.914583,1.84812 -0.914583,3.04748 0,1.24036 0.303934,2.26168 0.914583,3.06396 0.68452,0.909019 1.64011,1.36348 2.87222,1.36348 0.651654,0 1.24036,-0.145064 1.76333,-0.432616 0.449101,-0.257365 0.7859,-0.572219 1.0104,-0.947346l0 0.947346c0,0.50113 -0.224499,0.925504 -0.673599,1.26776 -0.492888,0.386047 -1.19379,0.577783 -2.10281,0.577783 -0.725629,0 -1.30887,-0.112301 -1.74695,-0.3368 -0.407992,-0.205335 -0.706465,-0.503809 -0.898098,-0.90088 -0.0766531,-0.128682 -0.17793,-0.202554 -0.306612,-0.224499 -0.117761,-0.032866 -0.235523,-0.010921 -0.353284,0.0629503 -0.128682,0.0657321 -0.208117,0.156088 -0.240983,0.273849 -0.0519263,0.128682 -0.0355448,0.262825 0.0493506,0.402532 0.287449,0.533893 0.733768,0.936425 1.33071,1.20203 0.57768,0.268286 1.29507,0.402429 2.14938,0.402429 1.22119,0 2.17678,-0.287449 2.87233,-0.865232 0.621467,-0.503809 0.930861,-1.13084 0.930861,-1.87831l0 -7.81449c0,-0.150627 -0.054708,-0.268389 -0.161548,-0.353284 -0.0958163,-0.0738713 -0.213475,-0.112198 -0.350399,-0.112198 -0.139706,0 -0.257365,0.0383265 -0.353284,0.112198 -0.0958163,0.0848953 -0.145064,0.202657 -0.145064,0.353284zm-2.79011 0.273746c0.898098,0 1.60178,0.375126 2.11651,1.1226 0.449101,0.662678 0.673599,1.47042 0.673599,2.42323 0,1.00494 -0.224499,1.82906 -0.673599,2.4698 -0.503809,0.717386 -1.20749,1.07603 -2.11651,1.07603 -0.920043,0 -1.62651,-0.358642 -2.11929,-1.07603 -0.438076,-0.640733 -0.657115,-1.46486 -0.657115,-2.4698 0,-0.952806 0.219038,-1.76055 0.657115,-2.42323 0.51473,-0.747471 1.21841,-1.1226 2.11929,-1.1226z"/>
  <path id="123456789" class="fil4" d="M135.043 47.5024l3.00101 7.57361 -0.561401 1.18833c-0.150524,0.320418 -0.281989,0.539456 -0.39975,0.657115 -0.139603,0.139706 -0.328557,0.208117 -0.563977,0.208117l-0.720168 0c-0.161548,0 -0.28477,0.043787 -0.369666,0.128682 -0.0738713,0.0848953 -0.112198,0.186172 -0.112198,0.303934 0,0.117761 0.0383265,0.219038 0.112198,0.303934 0.0848953,0.0958163 0.208117,0.145167 0.369666,0.145167l0.720168 0c0.440755,0 0.824124,-0.134143 1.15546,-0.402532 0.34226,-0.265607 0.637951,-0.673599 0.884395,-1.21841l3.62526 -9.00292c0.054708,-0.125901 0.043787,-0.243662 -0.032866,-0.353181 -0.0739743,-0.0958163 -0.180712,-0.15887 -0.320418,-0.191633 -0.139603,-0.032866 -0.268286,-0.0274055 -0.386047,0.0163815 -0.147846,0.043787 -0.243662,0.134143 -0.287449,0.273849l-2.56839 6.63987 -2.59848 -6.68922c-0.054708,-0.139603 -0.145064,-0.224499 -0.273746,-0.254583 -0.128682,-0.032866 -0.257365,-0.0164845 -0.383368,0.0492475 -0.128682,0.0520293 -0.227281,0.131464 -0.290231,0.238202 -0.0629503,0.117761 -0.0629503,0.246444 0,0.386047z"/>
  <path id="12345678910" class="fil4" d="M153.542 43.6198c-1.25128,0 -2.23427,0.257468 -2.95166,0.769416 -0.706465,0.525754 -1.05965,1.25138 -1.05965,2.18235 0,0.961048 0.347721,1.7113 1.04316,2.24519 0.588704,0.438076 1.53883,0.813203 2.85584,1.1226 1.36904,0.309394 2.28362,0.689981 2.74364,1.13908 0.386047,0.375126 0.57768,0.95837 0.57768,1.74963 0,0.725629 -0.369563,1.29785 -1.10611,1.71676 -0.610649,0.353284 -1.30063,0.528535 -2.07005,0.528535 -1.02678,0 -1.80166,-0.202657 -2.32741,-0.610649 -0.588704,-0.438076 -0.91994,-1.13908 -0.993914,-2.10013 -0.021945,-0.18339 -0.0848953,-0.320315 -0.191633,-0.418913 -0.0958163,-0.0848953 -0.213578,-0.123222 -0.353284,-0.112301 -0.128682,0.011024 -0.23542,0.0602716 -0.320315,0.145167 -0.106737,0.106737 -0.150627,0.246444 -0.128682,0.416131 0.106737,1.24314 0.544917,2.15762 1.31423,2.74364 0.706465,0.555838 1.71686,0.835045 3.03388,0.835045 1.16371,0 2.133,-0.284667 2.90241,-0.851529 0.835045,-0.596843 1.25128,-1.39912 1.25128,-2.40406 0,-1.02678 -0.303934,-1.82082 -0.914583,-2.37666 -0.632491,-0.57768 -1.7113,-1.02132 -3.24189,-1.33071 -1.16638,-0.23542 -1.97413,-0.544814 -2.42323,-0.930964 -0.427155,-0.361423 -0.64063,-0.876153 -0.64063,-1.53873 0,-0.662678 0.273746,-1.17195 0.818663,-1.52245 0.512051,-0.331236 1.21841,-0.498348 2.11929,-0.498348 0.832366,0 1.48124,0.169791 1.94126,0.512051 0.460022,0.353181 0.753034,0.911801 0.881716,1.6703 0.021842,0.169688 0.0903558,0.29837 0.208117,0.383265 0.117658,0.0876771 0.246341,0.123222 0.386047,0.11498 0.147846,-0.021842 0.262825,-0.0930346 0.3368,-0.210796 0.0958163,-0.128682 0.128682,-0.293013 0.0958163,-0.495566 -0.128682,-0.791361 -0.438076,-1.42931 -0.930964,-1.91118 -0.662575,-0.640733 -1.61548,-0.961151 -2.85584,-0.961151z"/>
  <path id="1234567891011" class="fil4" d="M163.683 46.859c-1.27312,0 -2.26982,0.470943 -2.98452,1.41283 -0.632491,0.832366 -0.947346,1.88655 -0.947346,3.15978 0,1.2623 0.314855,2.31093 0.947346,3.14339 0.714708,0.952806 1.7114,1.42921 2.98452,1.42921 1.25952,0 2.25076,-0.476403 2.96536,-1.42921 0.643515,-0.832469 0.96383,-1.88109 0.96383,-3.14339 0,-1.27322 -0.320315,-2.32741 -0.96383,-3.15978 -0.714605,-0.941885 -1.70584,-1.41283 -2.96536,-1.41283zm0 0.881716c0.939206,0 1.67297,0.380587 2.19605,1.13898 0.481864,0.673599 0.722847,1.52513 0.722847,2.55191 0,1.00494 -0.240983,1.85101 -0.722847,2.53553 -0.523075,0.758392 -1.25684,1.13898 -2.19605,1.13898 -0.952806,0 -1.6976,-0.380587 -2.23149,-1.13898 -0.460022,-0.673599 -0.689981,-1.51967 -0.689981,-2.53553 0,-1.02678 0.229959,-1.87831 0.689981,-2.55191 0.533893,-0.758392 1.27868,-1.13898 2.23149,-1.13898z"/>
  <path id="123456789101112" class="fil4" d="M170.069 44.0853l0 11.3878c0,0.150524 0.0492475,0.273746 0.145064,0.369563 0.0959194,0.0848953 0.213578,0.128682 0.353284,0.128682 0.125901,0 0.238202,-0.043787 0.334018,-0.128682 0.106737,-0.0847923 0.161548,-0.202554 0.161548,-0.353181l0 -11.3877c0,-0.161548 -0.0548111,-0.28477 -0.161548,-0.369666 -0.0958163,-0.0739743 -0.208117,-0.112301 -0.334018,-0.112301 -0.139706,0 -0.257365,0.0383265 -0.353284,0.112301 -0.0958163,0.0848953 -0.145064,0.202657 -0.145064,0.353181z"/>
  <path id="12345678910111213" class="fil4" d="M180.432 55.3307l0 -8.02261c0,-0.180815 -0.054708,-0.320418 -0.161548,-0.416234 -0.0958163,-0.0958163 -0.213578,-0.145167 -0.350399,-0.145167 -0.139706,0 -0.257468,0.0493506 -0.353284,0.145167 -0.0958163,0.0958163 -0.145064,0.23542 -0.145064,0.416234l0 6.08125c-0.397071,0.533996 -0.829687,0.941885 -1.30063,1.21852 -0.490106,0.309394 -1.0104,0.465482 -1.55521,0.465482 -0.533996,0 -0.95837,-0.172572 -1.26776,-0.514833 -0.287449,-0.309394 -0.432616,-0.68452 -0.432616,-1.1226l0 -6.12782c0,-0.180815 -0.0548111,-0.320418 -0.161548,-0.416234 -0.0958163,-0.0958163 -0.208117,-0.145167 -0.334018,-0.145167 -0.139706,0 -0.257365,0.0493506 -0.353284,0.145167 -0.0958163,0.0958163 -0.145064,0.23542 -0.145064,0.416234l0 6.12782c0,0.673599 0.224499,1.25128 0.673599,1.73325 0.503809,0.533893 1.1773,0.802179 2.02069,0.802179 0.610546,0 1.17184,-0.139603 1.6839,-0.416131 0.438076,-0.224499 0.829687,-0.533893 1.17195,-0.928182l0 0.703684c0,0.150524 0.0492475,0.273746 0.145064,0.369563 0.0958163,0.0848953 0.213578,0.128785 0.353284,0.128785 0.136822,0 0.254583,-0.0438901 0.350399,-0.128785 0.10684,-0.0958163 0.161548,-0.219038 0.161548,-0.369563z"/>
  <path id="1234567891011121314" class="fil4" d="M183.674 44.8712l0 2.22881 -0.865232 0c-0.246444,0 -0.369666,0.145064 -0.369666,0.432616 0,0.298473 0.123222,0.448997 0.369666,0.448997l0.865232 0 0 6.43453c0,0.416234 0.128682,0.769416 0.386047,1.05697 0.276528,0.331236 0.662678,0.498245 1.15546,0.498245l0.753034 0c0.150524,0 0.273746,-0.0492475 0.369563,-0.145064 0.0848953,-0.0848953 0.128785,-0.186172 0.128785,-0.303934 0,-0.128682 -0.0438901,-0.235523 -0.128785,-0.320315 -0.0958163,-0.0848953 -0.219038,-0.128682 -0.369563,-0.128682l-0.577783 0c-0.23542,0 -0.416131,-0.0794348 -0.544917,-0.240983 -0.106737,-0.128682 -0.161548,-0.287552 -0.161548,-0.481967l0 -6.3688 1.31711 0c0.276528,0 0.416131,-0.150524 0.416131,-0.448997 0,-0.287552 -0.139603,-0.432616 -0.416131,-0.432616l-1.31711 0 0 -2.22881c0,-0.161548 -0.054708,-0.28477 -0.161548,-0.369666 -0.0958163,-0.0739743 -0.213475,-0.112301 -0.350399,-0.112301 -0.139706,0 -0.257365,0.0383265 -0.353284,0.112301 -0.0958163,0.0848953 -0.145064,0.208117 -0.145064,0.369666z"/>
  <path id="123456789101112131415" class="fil4" d="M188.551 47.278l0 8.165c0,0.15887 0.0493506,0.293013 0.145167,0.39975 0.0958163,0.0848953 0.213578,0.128682 0.353181,0.128682 0.136925,0 0.254686,-0.0492475 0.350502,-0.145064 0.106737,-0.0958163 0.161548,-0.224499 0.161548,-0.383368l0 -8.165c0,-0.150627 -0.0548111,-0.268286 -0.161548,-0.353181 -0.0958163,-0.0739743 -0.213578,-0.112301 -0.350502,-0.112301 -0.139603,0 -0.257365,0.043787 -0.353181,0.128682 -0.0958163,0.0739743 -0.145167,0.186172 -0.145167,0.3368zm0.498348 -3.65812c-0.257365,0 -0.454561,0.0848953 -0.594164,0.257468 -0.128682,0.158767 -0.191633,0.35586 -0.191633,0.591383 0,0.224499 0.0629503,0.413453 0.191633,0.561298 0.139603,0.172469 0.3368,0.257365 0.594164,0.257365 0.246444,0 0.443537,-0.0848953 0.594164,-0.257365 0.139706,-0.158767 0.208117,-0.347721 0.208117,-0.561298 0,-0.235523 -0.0684108,-0.432616 -0.208117,-0.591383 -0.150627,-0.172572 -0.347721,-0.257468 -0.594164,-0.257468z"/>
  <path id="12345678910111213141516" class="fil4" d="M195.916 46.859c-1.27312,0 -2.26982,0.470943 -2.98452,1.41283 -0.632491,0.832366 -0.947346,1.88655 -0.947346,3.15978 0,1.2623 0.314855,2.31093 0.947346,3.14339 0.714708,0.952806 1.7114,1.42921 2.98452,1.42921 1.25952,0 2.25076,-0.476403 2.96536,-1.42921 0.643515,-0.832469 0.96383,-1.88109 0.96383,-3.14339 0,-1.27322 -0.320315,-2.32741 -0.96383,-3.15978 -0.714605,-0.941885 -1.70584,-1.41283 -2.96536,-1.41283zm0 0.881716c0.939206,0 1.67297,0.380587 2.19605,1.13898 0.481864,0.673599 0.722847,1.52513 0.722847,2.55191 0,1.00494 -0.240983,1.85101 -0.722847,2.53553 -0.523075,0.758392 -1.25684,1.13898 -2.19605,1.13898 -0.952806,0 -1.6976,-0.380587 -2.23149,-1.13898 -0.460022,-0.673599 -0.689981,-1.51967 -0.689981,-2.53553 0,-1.02678 0.229959,-1.87831 0.689981,-2.55191 0.533893,-0.758392 1.27868,-1.13898 2.23149,-1.13898z"/>
  <path id="1234567891011121314151617" class="fil4" d="M202.302 47.4697l0 7.97326c0,0.169791 0.0492475,0.303934 0.145064,0.39975 0.0959194,0.0959194 0.213578,0.145167 0.353284,0.145167 0.125901,-0.010921 0.238202,-0.0574898 0.334018,-0.145167 0.106737,-0.106737 0.161548,-0.246341 0.161548,-0.416131l0 -5.71168c0.375126,-0.68452 0.813203,-1.19111 1.31701,-1.52235 0.479185,-0.320418 1.02678,-0.481967 1.63465,-0.481967 0.55862,0 1.00216,0.169791 1.3335,0.512051 0.29837,0.301152 0.448997,0.67906 0.448997,1.13908l0 6.08125c0,0.15887 0.0493506,0.293013 0.145167,0.39975 0.0958163,0.0848953 0.213578,0.128682 0.353181,0.128682 0.126004,0 0.238202,-0.043787 0.334018,-0.128682 0.10684,-0.106737 0.161548,-0.24088 0.161548,-0.39975l0 -6.07857c0,-0.695441 -0.23542,-1.27868 -0.706362,-1.74963 -0.512051,-0.522972 -1.20203,-0.785797 -2.07005,-0.785797 -0.673599,0 -1.2623,0.142385 -1.76333,0.429834 -0.481864,0.27931 -0.878935,0.67906 -1.18833,1.20481l0 -0.996696c0,-0.158767 -0.0548111,-0.287552 -0.161548,-0.383368 -0.0958163,-0.0848953 -0.208117,-0.128682 -0.334018,-0.128682 -0.139706,0 -0.257365,0.043787 -0.353284,0.128682 -0.0958163,0.0958163 -0.145064,0.224602 -0.145064,0.38615z"/>
  <path id="123456789101112131415161718" class="fil4" d="M214.525 46.829c-0.865232,0 -1.56624,0.191633 -2.10013,0.57768 -0.566759,0.405313 -0.851529,0.966612 -0.851529,1.684 0,0.662575 0.23542,1.19379 0.706362,1.58808 0.427155,0.375126 1.11714,0.68452 2.07005,0.930964 1.04873,0.257365 1.76611,0.539353 2.14938,0.848747 0.320418,0.246444 0.481967,0.588704 0.481967,1.02678 0,0.470943 -0.186275,0.846069 -0.561401,1.1227 -0.396968,0.309394 -0.941885,0.465482 -1.63733,0.465482 -0.835148,0 -1.44023,-0.156088 -1.81536,-0.465482 -0.353181,-0.287552 -0.528432,-0.711926 -0.528432,-1.26776 -0.011024,-0.147846 -0.0685138,-0.262928 -0.175251,-0.3368 -0.0958163,-0.0739743 -0.213578,-0.10684 -0.353181,-0.0958163 -0.139706,0 -0.251904,0.043787 -0.3368,0.128682 -0.10684,0.0958163 -0.156088,0.219038 -0.145167,0.369666 0.032866,0.832366 0.331339,1.47032 0.898098,1.90839 0.566759,0.438076 1.38006,0.657115 2.43961,0.657115 1.05965,0 1.87295,-0.246341 2.43971,-0.736447 0.522972,-0.440858 0.785797,-1.01586 0.785797,-1.73325 0,-0.717386 -0.219038,-1.27868 -0.657115,-1.684 -0.460022,-0.438076 -1.25128,-0.785797 -2.37666,-1.04316 -0.920043,-0.235523 -1.54975,-0.487427 -1.89201,-0.753034 -0.320418,-0.257365 -0.481967,-0.605085 -0.481967,-1.04316 0,-0.375126 0.180712,-0.68452 0.544917,-0.930964 0.364205,-0.224499 0.818663,-0.3368 1.36358,-0.3368 0.717386,0 1.25674,0.134143 1.62094,0.39975 0.34226,0.246444 0.533893,0.605188 0.577783,1.07613 0.010921,0.150524 0.0738713,0.268286 0.191633,0.353181 0.106737,0.0739743 0.229959,0.10684 0.369666,0.0958163 0.150524,-0.021842 0.273746,-0.0738713 0.369563,-0.161548 0.10684,-0.106737 0.156088,-0.232741 0.145167,-0.383265 -0.0548111,-0.651757 -0.314855,-1.17741 -0.785797,-1.5717 -0.555838,-0.460022 -1.3746,-0.689981 -2.45609,-0.689981z"/>
 </g>
</svg>
